<svg xmlns="http://www.w3.org/2000/svg" xmlns:xlink="http://www.w3.org/1999/xlink" id="Layer_1" width="100" height="100" x="0" y="0" enable-background="new 0 0 100 100" version="1.1" viewBox="0 0 100 100" xml:space="preserve"><g><g><linearGradient id="SVGID_1_" x1="15.811" x2="15.811" y1="25" y2="-2.536" gradientUnits="userSpaceOnUse"><stop offset="0" stop-color="#FFF33B"/><stop offset=".059" stop-color="#FFE029"/><stop offset=".13" stop-color="#FFD218"/><stop offset=".203" stop-color="#FEC90F"/><stop offset=".281" stop-color="#FDC70C"/><stop offset=".668" stop-color="#F3903F"/><stop offset=".888" stop-color="#ED683C"/><stop offset="1" stop-color="#E93E3A"/></linearGradient><rect width="31.623" height="15.049" x="0" fill="url(#SVGID_1_)"/><linearGradient id="SVGID_2_" x1="50" x2="50" y1="25" y2="-2.536" gradientUnits="userSpaceOnUse"><stop offset="0" stop-color="#FFF33B"/><stop offset=".059" stop-color="#FFE029"/><stop offset=".13" stop-color="#FFD218"/><stop offset=".203" stop-color="#FEC90F"/><stop offset=".281" stop-color="#FDC70C"/><stop offset=".668" stop-color="#F3903F"/><stop offset=".888" stop-color="#ED683C"/><stop offset="1" stop-color="#E93E3A"/></linearGradient><rect width="31.623" height="15.049" x="34.188" fill="url(#SVGID_2_)"/><linearGradient id="SVGID_3_" x1="84.189" x2="84.189" y1="25" y2="-2.536" gradientUnits="userSpaceOnUse"><stop offset="0" stop-color="#FFF33B"/><stop offset=".059" stop-color="#FFE029"/><stop offset=".13" stop-color="#FFD218"/><stop offset=".203" stop-color="#FEC90F"/><stop offset=".281" stop-color="#FDC70C"/><stop offset=".668" stop-color="#F3903F"/><stop offset=".888" stop-color="#ED683C"/><stop offset="1" stop-color="#E93E3A"/></linearGradient><rect width="31.623" height="15.049" x="68.377" fill="url(#SVGID_3_)"/></g><g><rect width="31.623" height="15.049" x="0" y="16.99" fill="#898989"/><rect width="31.623" height="15.049" x="34.188" y="16.99" fill="#898989"/><rect width="31.623" height="15.049" x="68.377" y="16.99" fill="#898989"/></g><g><rect width="31.623" height="15.049" x="0" y="33.981" fill="#6D6E71"/><rect width="31.623" height="15.049" x="34.188" y="33.981" fill="#6D6E71"/><rect width="31.623" height="15.049" x="68.377" y="33.981" fill="#6D6E71"/></g><g><rect width="31.623" height="15.049" x="0" y="50.971" fill="#898989"/><rect width="31.623" height="15.049" x="34.188" y="50.971" fill="#898989"/><rect width="31.623" height="15.049" x="68.377" y="50.971" fill="#898989"/></g><g><rect width="31.623" height="15.049" x="0" y="67.961" fill="#6D6E71"/><rect width="31.623" height="15.049" x="34.188" y="67.961" fill="#6D6E71"/><rect width="31.623" height="15.049" x="68.377" y="67.961" fill="#6D6E71"/></g><g><rect width="31.623" height="15.049" x="0" y="84.951" fill="#898989"/><rect width="31.623" height="15.049" x="34.188" y="84.951" fill="#898989"/><rect width="31.623" height="15.049" x="68.377" y="84.951" fill="#898989"/></g></g></svg>