<svg xmlns="http://www.w3.org/2000/svg" xmlns:xlink="http://www.w3.org/1999/xlink" id="Layer_1" width="100" height="100" x="0" y="0" enable-background="new 0 0 100 100" version="1.1" viewBox="0 0 100 100" xml:space="preserve"><style type="text/css">.st0{fill:#898989}.st1{fill:url(#SVGID_1_)}</style><g><path d="M0,98V74.4c0-1.1,0.9-2,2-2H98c1.1,0,2,0.9,2,2V98c0,1.1-0.9,2-2,2H2C0.9,100,0,99.1,0,98z" class="st0"/><path d="M0,24.7v-22C0,1.2,1.2,0,2.6,0h94.8c1.4,0,2.6,1.2,2.6,2.8v22c0,1.5-1.2,2.8-2.6,2.8H2.6 C1.2,27.5,0,26.3,0,24.7z" class="st0"/><linearGradient id="SVGID_1_" x1="50" x2="50" y1="94.582" y2="11.659" gradientUnits="userSpaceOnUse"><stop offset="0" stop-color="#FFF23A"/><stop offset=".04" stop-color="#FEE62D"/><stop offset=".117" stop-color="#FED41A"/><stop offset=".196" stop-color="#FDC90F"/><stop offset=".281" stop-color="#FDC60B"/><stop offset=".668" stop-color="#F28F3F"/><stop offset=".888" stop-color="#ED693C"/><stop offset="1" stop-color="#E83E39"/></linearGradient><path d="M0,61.8V38.2c0-1.1,0.9-2,2-2H98c1.1,0,2,0.9,2,2v23.6c0,1.1-0.9,2-2,2H2C0.9,63.8,0,62.9,0,61.8z" class="st1"/></g></svg>