<svg xmlns="http://www.w3.org/2000/svg" xmlns:xlink="http://www.w3.org/1999/xlink" id="Layer_1" width="64" height="64" x="0" y="0" enable-background="new 0 0 64 64" version="1.1" viewBox="0 0 64 64" xml:space="preserve"><style type="text/css">.st0{fill:#f7f8fa}.st1{fill:url(#SVGID_1_)}</style><g><path d="M36.4,38.5h4.1v-4.1c0-1.7,0.8-3.2,2.1-4.2V17.9l-6.5,6.5v9c0,0.9-0.8,1.7-1.7,1.7h-7v4.2L23,35.1H8.2 c-0.9,0-1.7-0.7-1.7-1.7V14c0-0.9,0.8-1.7,1.7-1.7h23.2l6.5-6.5H8.2C3.7,5.8,0,9.4,0,14v19.4c0,4.5,3.7,8.2,8.2,8.2h12.2l10.6,10 v-7.8C31,40.9,33.4,38.5,36.4,38.5z" class="st0"/><rect width="22" height="6.7" x="24.6" y="13.1" class="st0" transform="matrix(0.7071 -0.7071 0.7071 0.7071 -1.2013 29.9904)"/><path d="M47.6,9.2L47.8,9l1.3-1.3c1.3-1.3,1.3-3.4,0-4.7s-3.4-1.3-4.7,0l-1.3,1.3l-0.2,0.2L42,5.3l4.7,4.7L47.6,9.2z" class="st0"/><polygon points="24.2 24.3 24.1 24.7 23.5 28.5 27.3 27.9 27.7 27.8 29.2 27.6 24.5 22.9" class="st0"/><linearGradient id="SVGID_1_" x1="49.66" x2="49.66" y1="-15.163" y2="45.391" gradientTransform="matrix(1 0 0 -1 0 66)" gradientUnits="userSpaceOnUse"><stop offset="0" stop-color="#FFF23A"/><stop offset=".04" stop-color="#FEE62D"/><stop offset=".117" stop-color="#FED41A"/><stop offset=".196" stop-color="#FDC90F"/><stop offset=".281" stop-color="#FDC60B"/><stop offset=".668" stop-color="#F28F3F"/><stop offset=".888" stop-color="#ED693C"/><stop offset="1" stop-color="#E83E39"/></linearGradient><path d="M63.2,43.1h-4.8H58h-3.6v-8.7c0-0.4-0.3-0.8-0.8-0.8h-7.9c-0.4,0-0.8,0.3-0.8,0.8v8.7h-8.7 c-0.4,0-0.8,0.3-0.8,0.8v7.9c0,0.4,0.3,0.8,0.8,0.8h8.7v3v1.2v4.4c0,0.4,0.3,0.8,0.8,0.8h7.9c0.4,0,0.8-0.3,0.8-0.8v-8.7h8.7 c0.4,0,0.8-0.3,0.8-0.8v-7.9C64,43.4,63.7,43.1,63.2,43.1z" class="st1"/></g></svg>